<?xml version="1.0" encoding="UTF-8"?>
<svg width="56px" height="43px" viewBox="0 0 56 43" version="1.1" xmlns="http://www.w3.org/2000/svg" xmlns:xlink="http://www.w3.org/1999/xlink">
    <!-- Generator: sketchtool 52.5 (67469) - http://www.bohemiancoding.com/sketch -->
    <title>FCB93805-FC82-4B5D-B4C9-6F310441D147</title>
    <desc>Created with sketchtool.</desc>
    <g id="Frontbyte.com" stroke="none" stroke-width="1" fill="none" fill-rule="evenodd">
        <g id="01.-Home-—-980" transform="translate(-713.000000, -1139.000000)">
            <g id="Services" transform="translate(0.000000, 680.000000)">
                <g id="digital" transform="translate(696.000000, 440.000000)">
                    <g id="-g-ic_digital" transform="translate(17.000000, 19.000000)">
                        <path d="M25.789581,15.4409597 L26.302456,15.4409597 L26.7992703,15.0126715 L27.2960846,15.4409597 L28.5788077,15.4409597 L29.0766927,15.0126715 L29.5756484,15.4420304 L30.0928063,15.4420304 L29.0691976,22.7443437 L26.8142604,22.7443437 L25.789581,15.4409597 Z M27.9406583,2.8385803 C32.6818083,2.8385803 36.5385433,6.69638599 36.5385433,11.4353946 C36.5374726,11.4771527 36.4004204,15.7214884 32.8959524,20.234575 C32.4334012,20.8491685 32.1153972,21.6918255 31.9483648,22.7443437 L31.0521718,22.7443437 L32.3755823,13.3080846 L30.8187548,13.0907284 L30.7170364,12.9718784 L30.6121058,13.0607482 L30.431154,13.0361216 L30.4022445,13.2416999 L30.2170099,13.4012373 L29.7169835,12.9718784 L28.4353311,12.9718784 L27.9374461,13.4001666 L27.4417026,12.9718784 L26.1579088,12.9718784 L25.6621652,13.4001666 L25.4812135,13.2438414 L25.452304,13.0361216 L25.2702816,13.0618189 L25.1674924,12.9729491 L25.065774,13.0896576 L23.506805,13.3080846 L24.8302155,22.7443437 L23.9233153,22.7443437 C23.759495,21.6907548 23.4436325,20.8470271 22.974657,20.2217264 C19.4776841,15.7214884 19.3427733,11.4771527 19.3427733,11.437536 C19.3427733,6.69638599 23.1995083,2.8385803 27.9406583,2.8385803 Z M9.06492796,11.5253351 L17.3812135,11.5253351 C17.3940621,11.7608936 17.4465274,12.4686398 17.6638837,13.4901071 C18.068616,15.3884944 19.0472545,18.36938 21.4135466,21.4145089 C21.76046,21.8759894 21.9906649,22.7197171 22.0634739,23.792579 L22.124505,24.7091157 L22.4093166,24.7091157 L22.4093166,24.8215413 L24.1396008,24.8215413 L24.1396008,25.7691289 L22.4093166,25.7691289 L22.4093166,27.7317594 L33.4730707,27.7317594 L33.4730707,25.7691289 L26.1043728,25.7691289 L26.1043728,24.8215413 L33.4730707,24.8215413 L33.4730707,24.7091157 L33.7353972,24.7091157 L33.8017819,23.7990033 C33.8810152,22.7250707 34.1165737,21.8781309 34.4570628,21.4262868 C36.8287085,18.3715215 37.8105592,15.3895651 38.2152915,13.4901071 C38.4347892,12.4686398 38.4872545,11.7608936 38.4990324,11.5253351 L46.8163886,11.5253351 C47.0380278,11.5253351 47.2189795,11.7062868 47.2189795,11.927926 L47.2189795,36.5138083 L8.6634078,36.5138083 L8.6634078,11.927926 C8.6634078,11.7062868 8.84328883,11.5253351 9.06492796,11.5253351 Z M53.2557013,39.4647138 C52.640037,39.8587389 51.6924494,40.3566239 51.0832095,40.3566239 L4.79810707,40.3566239 C4.20385724,40.3566239 3.27661335,39.8833655 2.62668605,39.4647138 L2.62668605,38.4775096 L53.2557013,38.4775096 L53.2557013,39.4647138 Z M49.1826808,11.927926 C49.1826808,10.6227178 48.1205261,9.56163384 46.8163886,9.56163384 L38.3266464,9.56163384 C37.4368777,4.63096629 33.1240159,0.874879048 27.9406583,0.874879048 C22.7583714,0.874879048 18.4444389,4.63096629 17.5546702,9.56163384 L9.06492796,9.56163384 C7.76079048,9.56163384 6.69970654,10.6227178 6.69970654,11.927926 L6.69970654,36.5138083 L0.662984798,36.5138083 L0.662984798,40.4733325 L1.05700991,40.7677806 C1.27008328,40.9262472 3.18238995,42.3203252 4.79810707,42.3203252 L51.0832095,42.3203252 C52.6989266,42.3203252 54.6133748,40.9262472 54.8253774,40.7677806 L55.2204732,40.4733325 L55.2204732,36.5138083 L49.1826808,36.5138083 L49.1826808,11.927926 Z" id="Fill-4" fill="#2E2D42"></path>
                        <path d="M24.3239788,30.6437978 L31.5588367,30.6437978 L31.5588367,28.6800965 L24.3239788,28.6800965 L24.3239788,30.6437978 Z M10.6273232,34.6375849 L45.253351,34.6375849 L45.253351,13.4897859 L38.2165763,13.4897859 C37.8097026,15.3892439 36.8278519,18.3712003 34.4572769,21.4259656 C34.1167878,21.8778096 33.8801586,22.7247495 33.801996,23.7986821 L33.7356114,24.7087944 L33.4732849,24.7087944 L33.4732849,24.8212201 L26.1045869,24.8212201 L26.1045869,25.7688077 L33.4732849,25.7688077 L33.4732849,27.7325089 L22.4095307,27.7325089 L22.4095307,25.7688077 L24.1408857,25.7688077 L24.1408857,24.8212201 L22.4095307,24.8212201 L22.4095307,24.7087944 L22.1247191,24.7087944 L22.0626173,23.7922578 C21.990879,22.7193959 21.7606742,21.8756682 21.4137607,21.4141877 C19.0474686,18.3690588 18.0688301,15.3881732 17.6640978,13.4897859 L10.6273232,13.4897859 L10.6273232,34.6375849 Z" id="Fill-6" fill="#FEFEFE"></path>
                        <polygon id="Fill-8" fill="#2E2D42" points="24.3229081 30.6437978 31.557766 30.6437978 31.557766 28.6800965 24.3229081 28.6800965"></polygon>
                    </g>
                </g>
            </g>
        </g>
    </g>
</svg>