<?xml version="1.0" encoding="UTF-8"?>
<svg width="26px" height="61px" viewBox="0 0 26 61" version="1.1" xmlns="http://www.w3.org/2000/svg" xmlns:xlink="http://www.w3.org/1999/xlink">
    <!-- Generator: sketchtool 52.5 (67469) - http://www.bohemiancoding.com/sketch -->
    <title>3816CB1B-B3BF-4FF7-A60A-D5FA27E54776</title>
    <desc>Created with sketchtool.</desc>
    <g id="Frontbyte.com" stroke="none" stroke-width="1" fill="none" fill-rule="evenodd">
        <g id="01.-Home-—-980" transform="translate(-437.000000, -1136.000000)">
            <g id="Services" transform="translate(0.000000, 680.000000)">
                <g id="hire" transform="translate(401.000000, 440.000000)">
                    <g id="-g-ic_hire" transform="translate(37.000000, 17.000000)">
                        <polyline id="Stroke-1" stroke="#2E2E41" stroke-width="2" points="17.5008 45.1923 21.1858 46.7543 23.0688 43.4533 15.1518 20.6333"></polyline>
                        <path d="M0.7982,1.5878 C-0.9648,2.8968 1.2752,7.3768 2.6782,9.7998 C5.4652,9.3548 8.3542,9.3268 11.1452,9.7218 C12.5502,7.2818 14.7242,2.8828 12.9772,1.5878 C12.9772,1.5878 7.8192,-1.9852 0.7982,1.5878" id="Fill-3" fill="#FFFFFF"></path>
                        <path d="M0.7982,1.5878 C-0.9648,2.8968 1.2752,7.3768 2.6782,9.7998 C5.4652,9.3548 8.3542,9.3268 11.1452,9.7218 C12.5502,7.2818 14.7242,2.8828 12.9772,1.5878 C12.9772,1.5878 7.8192,-1.9852 0.7982,1.5878 Z" id="Stroke-5" stroke="#2E2E41" stroke-width="2"></path>
                        <g id="Group-10" transform="translate(0.000000, 13.508300)">
                            <polyline id="Fill-7" fill="#FFFFFF" points="3.5926 0.4105 0.0406 37.5455 7.1056 44.5675 13.7366 37.5455 10.1756 0.3395"></polyline>
                            <polyline id="Stroke-9" stroke="#2E2E41" stroke-width="2" points="3.5926 0.4105 0.0406 37.5455 7.1056 44.5675 13.7366 37.5455 10.1756 0.3395"></polyline>
                        </g>
                    </g>
                </g>
            </g>
        </g>
    </g>
</svg>