<?xml version="1.0" encoding="UTF-8"?>
<svg width="50px" height="52px" viewBox="0 0 50 52" version="1.1" xmlns="http://www.w3.org/2000/svg" xmlns:xlink="http://www.w3.org/1999/xlink">
    <!-- Generator: sketchtool 52.5 (67469) - http://www.bohemiancoding.com/sketch -->
    <title>7B6F6615-5D1B-474E-AFEC-09AAB9534B96</title>
    <desc>Created with sketchtool.</desc>
    <g id="Frontbyte.com" stroke="none" stroke-width="1" fill="none" fill-rule="evenodd">
        <g id="01.-Home-—-980" transform="translate(-118.000000, -1141.000000)">
            <g id="Services" transform="translate(0.000000, 680.000000)">
                <g id="project" transform="translate(98.000000, 440.000000)">
                    <g id="-g-ic_project" transform="translate(20.000000, 21.000000)">
                        <path d="M29.1953929,48.8805 C29.2393214,49.1097857 29.2875357,49.2994286 29.3368214,49.4708571 L20.4568214,49.4708571 C20.5093214,49.2994286 20.5575357,49.1097857 20.6036071,48.8805 C20.7503929,48.138 20.7364643,47.0708571 20.7236071,46.0401429 C20.7203929,45.8344286 20.71825,45.6394286 20.7171786,45.4508571 L29.0818214,45.4508571 C29.08075,45.6469286 29.0786071,45.8547857 29.0764643,46.0712143 C29.0614643,47.0858571 29.0464643,48.1369286 29.1953929,48.8805 Z M46.8996786,43.4858571 L3.24432143,43.4858571 C3.06539286,43.4858571 2.71075,43.1194286 2.71075,42.8826429 L2.71075,39.9822857 L47.1161071,39.9822857 L47.1161071,42.948 C47.1161071,43.2522857 46.9618214,43.4858571 46.8996786,43.4858571 Z M49.0671786,37.9905 L49.0671786,11.883 C49.0671786,10.6401429 48.0568214,9.62978571 46.8128929,9.62978571 L40.2750357,9.62978571 L40.2750357,7.95407143 L40.2171786,7.95407143 L38.3100357,7.95407143 L38.3100357,10.6133571 L38.3100357,35.2872857 L38.7086071,35.2872857 L40.2750357,35.2872857 L40.2750357,14.2958571 L40.2750357,11.5958571 L46.8128929,11.5958571 C46.9725357,11.5958571 47.1011071,11.7244286 47.1011071,11.883 L47.1011071,38.0162143 L2.70860714,38.0162143 L2.70860714,11.883 C2.70860714,11.7244286 2.83610714,11.5958571 2.99575,11.5958571 L9.60753571,11.5958571 L9.60753571,14.2958571 L9.60753571,35.2872857 L11.1150357,35.2872857 L11.5736071,35.2872857 L11.5736071,10.6133571 L11.5736071,2.28514286 L32.64325,2.28514286 L32.64325,0.376928571 L32.64325,0.320142857 L9.60753571,0.320142857 L9.60753571,9.62978571 L2.99575,9.62978571 C1.75396429,9.62978571 0.742535714,10.6401429 0.742535714,11.883 L0.742535714,39.9822857 L0.74575,39.9822857 L0.74575,42.8826429 C0.74575,44.2026429 1.96075,45.4508571 3.24432143,45.4508571 L18.7521786,45.4508571 C18.75325,45.6490714 18.7553929,45.8537143 18.7575357,46.0658571 C18.7639643,46.4547857 18.76825,46.8887143 18.7628929,47.2958571 C18.7553929,47.7694286 18.7328929,48.2076429 18.6761071,48.4990714 C18.6150357,48.8001429 18.5753929,48.9319286 18.5539643,48.9876429 C18.5078929,49.0165714 18.4564643,49.0412143 18.3953929,49.0765714 L18.3278929,49.113 C18.2614643,49.1494286 18.1693214,49.1955 18.0686071,49.2437143 C17.9314643,49.3101429 17.77075,49.3872857 17.58325,49.4708571 L16.3403929,49.4708571 L16.3403929,51.4369286 L31.7646786,51.4369286 C31.7668214,51.438 31.7700357,51.4390714 31.7721786,51.4390714 L31.77325,51.4369286 L33.4928929,51.4369286 L33.4928929,49.4708571 L32.1803929,49.4708571 C32.0014643,49.3905 31.8471786,49.3165714 31.7078929,49.2490714 C31.5911071,49.1922857 31.4850357,49.1376429 31.4003929,49.0926429 C31.3403929,49.0594286 31.2878929,49.0337143 31.2428929,49.0047857 C31.2225357,48.9426429 31.1828929,48.8033571 31.1239643,48.4990714 C31.0671786,48.2172857 31.0446786,47.8047857 31.0371786,47.3558571 C31.0296786,46.9401429 31.0361071,46.4944286 31.0414643,46.0958571 C31.0436071,45.873 31.0468214,45.6576429 31.0478929,45.4508571 L46.8996786,45.4508571 C48.26575,45.4508571 49.0811071,44.1769286 49.0811071,42.948 L49.0811071,37.9905 L49.0671786,37.9905 Z" id="Fill-4" fill="#2E2D42"></path>
                        <polygon id="Fill-6" fill="#FEFEFE" points="5.35107143 35.2875 9.60678571 35.2875 9.60678571 14.2960714 5.35107143 14.2960714"></polygon>
                        <polygon id="Fill-8" fill="#FEFEFE" points="40.2742857 35.2875 44.41 35.2875 44.41 14.2960714 40.2742857 14.2960714"></polygon>
                        <polygon id="Fill-9" fill="#FEFEFE" points="32.6419643 7.95385714 38.30875 7.95385714 40.2169643 7.95385714 32.6419643 0.377785714 32.6419643 2.28492857"></polygon>
                        <polygon id="Fill-10" fill="#2E2D42" points="33.8578214 11.5986429 33.8578214 10.6129286 33.8578214 9.63364286 20.0760357 9.63364286 20.0760357 10.6129286 20.0760357 11.5986429"></polygon>
                        <polygon id="Fill-11" fill="#2E2D42" points="20.0757143 14.6721429 33.8575 14.6721429 33.8575 12.7071429 20.0757143 12.7071429"></polygon>
                        <polygon id="Fill-12" fill="#2E2D42" points="14.9550357 11.45325 13.8900357 13.1043214 16.0393214 14.4918214 18.7264643 11.1243214 18.0846786 10.6121786 17.1900357 9.89753571 16.6200357 10.6121786 15.61075 11.8764643"></polygon>
                        <polygon id="Fill-13" fill="#2E2D42" points="20.0757143 20.7653571 33.8575 20.7653571 33.8575 18.8003571 20.0757143 18.8003571"></polygon>
                        <polygon id="Fill-14" fill="#2E2D42" points="20.0757143 23.8392857 33.8575 23.8392857 33.8575 21.8742857 20.0757143 21.8742857"></polygon>
                        <polygon id="Fill-15" fill="#2E2D42" points="18.7259286 20.2909286 17.1884286 19.0652143 15.6112857 21.0441429 14.9545 20.6198571 13.8873571 22.272 16.0387857 23.6584286"></polygon>
                        <polygon id="Fill-16" fill="#2E2D42" points="20.0757143 29.9325 33.8575 29.9325 33.8575 27.9675 20.0757143 27.9675"></polygon>
                        <polygon id="Fill-17" fill="#2E2D42" points="20.0757143 33.0053571 33.8575 33.0053571 33.8575 31.0403571 20.0757143 31.0403571"></polygon>
                        <polygon id="Fill-18" fill="#2E2D42" points="18.7259286 29.45775 17.1884286 28.2320357 15.6112857 30.2109643 14.9545 29.7866786 13.8873571 31.4388214 16.0387857 32.82525"></polygon>
                    </g>
                </g>
            </g>
        </g>
    </g>
</svg>