<?xml version="1.0" encoding="UTF-8"?>
<svg width="32px" height="24px" viewBox="0 0 32 24" version="1.1" xmlns="http://www.w3.org/2000/svg" xmlns:xlink="http://www.w3.org/1999/xlink">
    <!-- Generator: sketchtool 52.5 (67469) - http://www.bohemiancoding.com/sketch -->
    <title>431C2708-EDFE-4B0E-9508-BCB70016C9BA</title>
    <desc>Created with sketchtool.</desc>
    <g id="Frontbyte.com" stroke="none" stroke-width="1" fill="none" fill-rule="evenodd">
        <g id="01.-Home-—-320" transform="translate(-39.000000, -951.000000)">
            <g id="Services" transform="translate(0.000000, 480.000000)">
                <g id="digital" transform="translate(30.000000, 460.000000)">
                    <g id="-g-ic_digital" transform="translate(9.444444, 10.555556)">
                        <path d="M14.327545,8.57831093 L14.6124756,8.57831093 L14.8884835,8.34037306 L15.1644914,8.57831093 L15.8771154,8.57831093 L16.1537181,8.34037306 L16.4309158,8.57890578 L16.7182257,8.57890578 L16.1495542,12.6357465 L14.8968113,12.6357465 L14.327545,8.57831093 Z M15.5225879,1.57698906 C18.1565602,1.57698906 20.2991907,3.72021444 20.2991907,6.35299699 C20.2985959,6.37619593 20.2224558,8.73416024 18.2755291,11.2414306 C18.0185562,11.5828714 17.8418873,12.0510142 17.7490916,12.6357465 L17.2512066,12.6357465 L17.9864346,7.39338033 L17.1215304,7.27262686 L17.0650202,7.2065991 L17.0067254,7.25597121 L16.9061967,7.24228978 L16.8901359,7.35649996 L16.7872277,7.44513182 L16.5094353,7.2065991 L15.7974062,7.2065991 L15.5208034,7.44453698 L15.2453903,7.2065991 L14.5321716,7.2065991 L14.2567585,7.44453698 L14.1562297,7.35768965 L14.1401689,7.24228978 L14.0390453,7.25656606 L13.9819402,7.20719395 L13.92543,7.27203202 L13.0593361,7.39338033 L13.7945641,12.6357465 L13.2907307,12.6357465 C13.1997195,12.0504193 13.0242403,11.5816817 12.7636983,11.2342924 C10.8209356,8.73416024 10.7459852,6.37619593 10.7459852,6.35418668 C10.7459852,3.72021444 12.8886157,1.57698906 15.5225879,1.57698906 Z M5.03607109,6.40296394 L9.65622971,6.40296394 C9.66336785,6.53382977 9.69251524,6.9270221 9.81326871,7.49450393 C10.03812,8.54916355 10.581808,10.2052111 11.8964148,11.8969494 C12.0891445,12.1533275 12.2170361,12.6220651 12.2574855,13.2180994 L12.2913916,13.7272865 L12.4496203,13.7272865 L12.4496203,13.7897452 L13.4108893,13.7897452 L13.4108893,14.3161827 L12.4496203,14.3161827 L12.4496203,15.406533 L18.5961504,15.406533 L18.5961504,14.3161827 L14.5024293,14.3161827 L14.5024293,13.7897452 L18.5961504,13.7897452 L18.5961504,13.7272865 L18.7418873,13.7272865 L18.7787677,13.2216685 C18.8227862,12.6250393 18.9536521,12.1545171 19.1428127,11.9034927 C20.4603936,10.2064008 21.0058662,8.54975839 21.2307175,7.49450393 C21.3526606,6.9270221 21.381808,6.53382977 21.3883513,6.40296394 L26.0091048,6.40296394 C26.1322376,6.40296394 26.2327664,6.50349269 26.2327664,6.62662554 L26.2327664,20.2854491 L4.81300433,20.2854491 L4.81300433,6.62662554 C4.81300433,6.50349269 4.91293824,6.40296394 5.03607109,6.40296394 Z M29.5865007,21.924841 C29.244465,22.1437438 28.7180275,22.4203466 28.3795608,22.4203466 L2.66561504,22.4203466 C2.33547624,22.4203466 1.82034075,22.1574253 1.45927003,21.924841 L1.45927003,21.3763942 L29.5865007,21.3763942 L29.5865007,21.924841 Z M27.3237115,6.62662554 C27.3237115,5.90150988 26.7336256,5.3120188 26.0091048,5.3120188 L21.2925813,5.3120188 C20.7982654,2.57275905 18.402231,0.486043916 15.5225879,0.486043916 C12.6435397,0.486043916 10.2469105,2.57275905 9.75259455,5.3120188 L5.03607109,5.3120188 C4.31155027,5.3120188 3.72205919,5.90150988 3.72205919,6.62662554 L3.72205919,20.2854491 L0.368324888,20.2854491 L0.368324888,22.4851847 L0.58722773,22.648767 C0.705601821,22.736804 1.76799442,23.5112918 2.66561504,23.5112918 L28.3795608,23.5112918 C29.2771815,23.5112918 30.3407638,22.736804 30.458543,22.648767 L30.6780407,22.4851847 L30.6780407,20.2854491 L27.3237115,20.2854491 L27.3237115,6.62662554 Z" id="Fill-4" fill="#2E2D42"></path>
                        <path d="M13.5133216,17.0243321 L17.5326871,17.0243321 L17.5326871,15.9333869 L13.5133216,15.9333869 L13.5133216,17.0243321 Z M5.90406844,19.2431027 L25.1407505,19.2431027 L25.1407505,7.49432548 L21.2314313,7.49432548 C21.0053903,8.54957994 20.4599177,10.2062224 19.1429316,11.9033142 C18.953771,12.1543387 18.8223103,12.6248608 18.7788867,13.22149 L18.7420063,13.727108 L18.5962694,13.727108 L18.5962694,13.7895667 L14.5025483,13.7895667 L14.5025483,14.3160043 L18.5962694,14.3160043 L18.5962694,15.4069494 L12.4497393,15.4069494 L12.4497393,14.3160043 L13.4116031,14.3160043 L13.4116031,13.7895667 L12.4497393,13.7895667 L12.4497393,13.727108 L12.2915106,13.727108 L12.2570096,13.217921 C12.217155,12.6218866 12.0892634,12.153149 11.8965337,11.8967709 C10.581927,10.2050327 10.038239,8.54898509 9.81338768,7.49432548 L5.90406844,7.49432548 L5.90406844,19.2431027 Z" id="Fill-6" fill="#FEFEFE"></path>
                        <polygon id="Fill-8" fill="#2E2D42" points="13.5127267 17.0243321 17.5320922 17.0243321 17.5320922 15.9333869 13.5127267 15.9333869"></polygon>
                    </g>
                </g>
            </g>
        </g>
    </g>
</svg>