<?xml version="1.0" encoding="UTF-8"?>
<svg width="30px" height="30px" viewBox="0 0 30 30" version="1.1" xmlns="http://www.w3.org/2000/svg" xmlns:xlink="http://www.w3.org/1999/xlink">
    <!-- Generator: sketchtool 52.5 (67469) - http://www.bohemiancoding.com/sketch -->
    <title>C033947C-30E2-44EB-9014-B152C69DE82B</title>
    <desc>Created with sketchtool.</desc>
    <g id="Frontbyte.com" stroke="none" stroke-width="1" fill="none" fill-rule="evenodd">
        <g id="01.-Home-—-320" transform="translate(-85.000000, -4180.000000)" fill="#FFFFFF">
            <g id="Contacts" transform="translate(-218.000000, 4020.000000)">
                <g id="Group" transform="translate(248.000000, 160.000000)">
                    <g id="-g-ic_facebook_white" transform="translate(55.000000, 0.000000)">
                        <path d="M15,30 C6.71572875,30 -3.55271368e-15,23.2842712 -3.55271368e-15,15 C-3.55271368e-15,6.71572875 6.71572875,-2.30926389e-13 15,-2.30926389e-13 C23.2842712,-2.30926389e-13 30,6.71572875 30,15 C30,23.2842712 23.2842712,30 15,30 Z M17.7181166,14.9845908 L17.9929477,12.1702799 L15.6420529,12.1702799 L15.6420529,10.5124244 C15.6420529,9.89059192 16.0320019,9.74458697 16.309322,9.74458697 L18,9.74458697 L18,7.0102728 L15.6698471,7 C13.0837383,7 12.4961183,9.04122782 12.4961183,10.344781 L12.4961183,12.1676571 L11,12.1676571 L11,14.9845908 L12.4961183,14.9845908 L12.4961183,23 L15.6418454,23 L15.6418454,14.9845908 L17.7181166,14.9845908 Z" id="Combined-Shape"></path>
                    </g>
                </g>
            </g>
        </g>
    </g>
</svg>