<?xml version="1.0" encoding="UTF-8"?>
<svg width="30px" height="30px" viewBox="0 0 30 30" version="1.1" xmlns="http://www.w3.org/2000/svg" xmlns:xlink="http://www.w3.org/1999/xlink">
    <!-- Generator: sketchtool 52.5 (67469) - http://www.bohemiancoding.com/sketch -->
    <title>C113CA74-072B-4099-8526-75695EC99A25</title>
    <desc>Created with sketchtool.</desc>
    <g id="Frontbyte.com" stroke="none" stroke-width="1" fill="none" fill-rule="evenodd">
        <g id="01.-Home-—-320" transform="translate(-30.000000, -4180.000000)" fill="#FFFFFF">
            <g id="Contacts" transform="translate(-218.000000, 4020.000000)">
                <g id="Group" transform="translate(248.000000, 160.000000)">
                    <g id="-g-ic_linkedin_white">
                        <path d="M30,15 C30,23.28396 23.28396,30 15,30 C6.71598,30 0,23.28396 0,15 C0,6.71598 6.71598,5.32907052e-14 15,5.32907052e-14 C23.28396,5.32907052e-14 30,6.71598 30,15 Z M23,15.6349432 C23,12.7345437 21.4143935,11.3838657 19.2982603,11.3838657 C17.5896822,11.3838657 16.8273662,12.3023457 16.3998988,12.9449926 L16.3998988,12.97574 L16.3788026,12.97574 C16.3847225,12.9654383 16.3940866,12.9552942 16.3998988,12.9449926 L16.3998988,11.6058777 L13.1830491,11.6058777 C13.2263717,12.492086 13.1830491,21.0526347 13.1830491,21.0526347 L16.3998988,21.0526347 L16.3998988,15.7768017 C16.3998988,15.4931372 16.420995,15.2129417 16.5064562,15.0116382 C16.7394833,14.4466219 17.2676959,13.8622111 18.1552976,13.8622111 C19.3205405,13.8622111 19.7842805,14.7291301 19.7842805,15.9986034 L19.7842805,21.0525822 L23,21.0526347 L23,15.6349432 Z M9.81981752,7.05263473 C8.71899341,7.05263473 8,7.75830066 8,8.68471714 C8,9.59163399 8.69795101,10.3166419 9.77767891,10.3166419 L9.79759116,10.3166419 C10.9194577,10.3166419 11.6174087,9.59168655 11.6174087,8.68471714 C11.5963125,7.75835322 10.9194577,7.05263473 9.81981752,7.05263473 Z M8.19088844,21.0526347 L11.405424,21.0526347 L11.405424,11.6058777 L8.19088844,11.6058777 L8.19088844,21.0526347 Z" id="Combined-Shape"></path>
                    </g>
                </g>
            </g>
        </g>
    </g>
</svg>