<?xml version="1.0" encoding="UTF-8"?>
<svg width="28px" height="30px" viewBox="0 0 28 30" version="1.1" xmlns="http://www.w3.org/2000/svg" xmlns:xlink="http://www.w3.org/1999/xlink">
    <!-- Generator: sketchtool 52.5 (67469) - http://www.bohemiancoding.com/sketch -->
    <title>D82A8411-E3DA-4332-8F8C-405362AEBFC7</title>
    <desc>Created with sketchtool.</desc>
    <g id="Frontbyte.com" stroke="none" stroke-width="1" fill="none" fill-rule="evenodd">
        <g id="01.-Home-—-320" transform="translate(-41.000000, -731.000000)">
            <g id="Services" transform="translate(0.000000, 480.000000)">
                <g id="project" transform="translate(30.000000, 234.000000)">
                    <g id="-g-ic_project" transform="translate(11.111111, 17.666667)">
                        <path d="M16.2196627,27.1558333 C16.2440675,27.2832143 16.2708532,27.3885714 16.2982341,27.4838095 L11.3649008,27.4838095 C11.3940675,27.3885714 11.4208532,27.2832143 11.4464484,27.1558333 C11.527996,26.7433333 11.5202579,26.1504762 11.5131151,25.5778571 C11.5113294,25.4635714 11.5101389,25.3552381 11.5095437,25.2504762 L16.1565675,25.2504762 C16.1559722,25.3594048 16.1547817,25.474881 16.1535913,25.595119 C16.1452579,26.1588095 16.1369246,26.7427381 16.2196627,27.1558333 Z M26.055377,24.1588095 L1.80240079,24.1588095 C1.70299603,24.1588095 1.50597222,23.9552381 1.50597222,23.8236905 L1.50597222,22.212381 L26.1756151,22.212381 L26.1756151,23.86 C26.1756151,24.0290476 26.0899008,24.1588095 26.055377,24.1588095 Z M27.2595437,21.1058333 L27.2595437,6.60166667 C27.2595437,5.91119048 26.6982341,5.34988095 26.0071627,5.34988095 L22.3750198,5.34988095 L22.3750198,4.41892857 L22.342877,4.41892857 L21.2833532,4.41892857 L21.2833532,5.89630952 L21.2833532,19.6040476 L21.5047817,19.6040476 L22.3750198,19.6040476 L22.3750198,7.94214286 L22.3750198,6.44214286 L26.0071627,6.44214286 C26.0958532,6.44214286 26.1672817,6.51357143 26.1672817,6.60166667 L26.1672817,21.120119 L1.50478175,21.120119 L1.50478175,6.60166667 C1.50478175,6.51357143 1.57561508,6.44214286 1.66430556,6.44214286 L5.33751984,6.44214286 L5.33751984,7.94214286 L5.33751984,19.6040476 L6.17501984,19.6040476 L6.42978175,19.6040476 L6.42978175,5.89630952 L6.42978175,1.26952381 L18.1351389,1.26952381 L18.1351389,0.209404762 L18.1351389,0.177857143 L5.33751984,0.177857143 L5.33751984,5.34988095 L1.66430556,5.34988095 C0.974424603,5.34988095 0.412519841,5.91119048 0.412519841,6.60166667 L0.412519841,22.212381 L0.414305556,22.212381 L0.414305556,23.8236905 C0.414305556,24.5570238 1.08930556,25.2504762 1.80240079,25.2504762 L10.417877,25.2504762 C10.4184722,25.3605952 10.4196627,25.4742857 10.4208532,25.5921429 C10.4244246,25.8082143 10.4268056,26.0492857 10.4238294,26.2754762 C10.4196627,26.5385714 10.4071627,26.7820238 10.3756151,26.9439286 C10.3416865,27.1111905 10.3196627,27.1844048 10.3077579,27.2153571 C10.2821627,27.2314286 10.2535913,27.245119 10.2196627,27.2647619 L10.1821627,27.285 C10.1452579,27.3052381 10.0940675,27.3308333 10.0381151,27.357619 C9.9619246,27.3945238 9.87263889,27.437381 9.76847222,27.4838095 L9.07799603,27.4838095 L9.07799603,28.5760714 L17.6470437,28.5760714 C17.6482341,28.5766667 17.6500198,28.5772619 17.6512103,28.5772619 L17.6518056,28.5760714 L18.6071627,28.5760714 L18.6071627,27.4838095 L17.877996,27.4838095 C17.7785913,27.4391667 17.692877,27.3980952 17.615496,27.3605952 C17.5506151,27.3290476 17.4916865,27.2986905 17.4446627,27.2736905 C17.4113294,27.2552381 17.3821627,27.2409524 17.3571627,27.224881 C17.3458532,27.1903571 17.3238294,27.1129762 17.2910913,26.9439286 C17.2595437,26.787381 17.2470437,26.5582143 17.242877,26.3088095 C17.2387103,26.0778571 17.2422817,25.8302381 17.2452579,25.6088095 C17.2464484,25.485 17.2482341,25.3653571 17.2488294,25.2504762 L26.055377,25.2504762 C26.8143056,25.2504762 27.2672817,24.5427381 27.2672817,23.86 L27.2672817,21.1058333 L27.2595437,21.1058333 Z" id="Fill-4" fill="#2E2D42"></path>
                        <polygon id="Fill-6" fill="#FEFEFE" points="2.97281746 19.6041667 5.33710317 19.6041667 5.33710317 7.9422619 2.97281746 7.9422619"></polygon>
                        <polygon id="Fill-8" fill="#FEFEFE" points="22.3746032 19.6041667 24.6722222 19.6041667 24.6722222 7.9422619 22.3746032 7.9422619"></polygon>
                        <polygon id="Fill-9" fill="#FEFEFE" points="18.1344246 4.41880952 21.2826389 4.41880952 22.3427579 4.41880952 18.1344246 0.209880952 18.1344246 1.26940476"></polygon>
                        <polygon id="Fill-10" fill="#2E2D42" points="18.8099008 6.44369048 18.8099008 5.89607143 18.8099008 5.35202381 11.1533532 5.35202381 11.1533532 5.89607143 11.1533532 6.44369048"></polygon>
                        <polygon id="Fill-11" fill="#2E2D42" points="11.1531746 8.15119048 18.8097222 8.15119048 18.8097222 7.05952381 11.1531746 7.05952381"></polygon>
                        <polygon id="Fill-12" fill="#2E2D42" points="8.30835317 6.36291667 7.71668651 7.28017857 8.91073413 8.0510119 10.4035913 6.18017857 10.0470437 5.89565476 9.55001984 5.49863095 9.23335317 5.89565476 8.67263889 6.59803571"></polygon>
                        <polygon id="Fill-13" fill="#2E2D42" points="11.1531746 11.5363095 18.8097222 11.5363095 18.8097222 10.4446429 11.1531746 10.4446429"></polygon>
                        <polygon id="Fill-14" fill="#2E2D42" points="11.1531746 13.2440476 18.8097222 13.2440476 18.8097222 12.152381 11.1531746 12.152381"></polygon>
                        <polygon id="Fill-15" fill="#2E2D42" points="10.4032937 11.2727381 9.54912698 10.5917857 8.67293651 11.6911905 8.30805556 11.4554762 7.71519841 12.3733333 8.91043651 13.1435714"></polygon>
                        <polygon id="Fill-16" fill="#2E2D42" points="11.1531746 16.6291667 18.8097222 16.6291667 18.8097222 15.5375 11.1531746 15.5375"></polygon>
                        <polygon id="Fill-17" fill="#2E2D42" points="11.1531746 18.3363095 18.8097222 18.3363095 18.8097222 17.2446429 11.1531746 17.2446429"></polygon>
                        <polygon id="Fill-18" fill="#2E2D42" points="10.4032937 16.3654167 9.54912698 15.6844643 8.67293651 16.783869 8.30805556 16.5481548 7.71519841 17.4660119 8.91043651 18.23625"></polygon>
                    </g>
                </g>
            </g>
        </g>
    </g>
</svg>