<?xml version="1.0" encoding="UTF-8"?>
<svg width="40px" height="40px" viewBox="0 0 40 40" version="1.1" xmlns="http://www.w3.org/2000/svg" xmlns:xlink="http://www.w3.org/1999/xlink">
    <!-- Generator: sketchtool 52.5 (67469) - http://www.bohemiancoding.com/sketch -->
    <title>7B3A1EE3-6C1A-4355-9FC5-A6A7AF2A7898</title>
    <desc>Created with sketchtool.</desc>
    <g id="Symbols" stroke="none" stroke-width="1" fill="none" fill-rule="evenodd">
        <g id="IMAGE/LOGO/DESKTOP/LIGHT">
            <g id="-g-img_logo_desktop_light">
                <path d="M20.0004371,-5.68434189e-14 C8.95347567,-5.68434189e-14 0,8.953867 0,20.0013112 C0,31.0478813 8.95347567,40 20.0004371,40 C31.0473984,40 40,31.0478813 40,20.0013112 C40,8.953867 31.0473984,-5.68434189e-14 20.0004371,-5.68434189e-14" id="Fill-19" fill="#64CAE1"></path>
                <path d="M14.6035556,12.0240851 L17.9430989,12.0240851 L19.6120183,14.9117447 L17.9430989,17.8019574 L14.6035556,17.8019574 L12.9303744,14.9117447 L14.6035556,12.0240851 Z M17.9426728,32.2289362 L14.6031294,32.2289362 L12.9299482,29.3395745 L14.6031294,26.4493617 L17.9426728,26.4493617 L19.6115921,29.3395745 L17.9426728,32.2289362 Z M17.9426728,25.012 L14.6031294,25.012 L12.9299482,22.1234894 L14.6031294,19.2332766 L17.9426728,19.2332766 L19.6115921,22.1234894 L17.9426728,25.012 Z M24.4044932,21.4086809 L21.0623927,21.4086809 L19.3917686,18.5210213 L21.0623927,15.637617 L24.4044932,15.637617 L26.0751172,18.5210213 L24.4044932,21.4086809 Z M24.4044932,14.1970213 L21.0623927,14.1970213 L19.3917686,11.3085106 L21.0623927,8.41914894 L24.4044932,8.41914894 L26.0751172,11.3085106 L24.4044932,14.1970213 Z" id="Combined-Shape" fill="#2D2D42"></path>
            </g>
        </g>
    </g>
</svg>